<svg xmlns="http://www.w3.org/2000/svg" width="1200" height="400" viewBox="0 0 1200 400" role="img" aria-labelledby="title desc">
<title id="title">Howie Deng — Java, AI engineering and open source</title>
<desc id="desc">A midnight blue and violet banner with an orbital diagram, NYU CS, and the phrase Build with intent. Go deep.</desc>
<defs>
  <linearGradient id="bg" x2="1" y2="1"><stop stop-color="#101528"/><stop offset=".55" stop-color="#161631"/><stop offset="1" stop-color="#102338"/></linearGradient>
  <linearGradient id="accent"><stop stop-color="#b69cff"/><stop offset="1" stop-color="#68e4ef"/></linearGradient>
  <radialGradient id="glow"><stop stop-color="#7957db" stop-opacity=".35"/><stop offset="1" stop-color="#7957db" stop-opacity="0"/></radialGradient>
  <pattern id="grid" width="40" height="40" patternUnits="userSpaceOnUse"><path d="M40 0H0V40" fill="none" stroke="#bac7ff" stroke-opacity=".055"/></pattern>
</defs>
<rect width="1200" height="400" rx="22" fill="url(#bg)"/>
<rect width="1200" height="400" rx="22" fill="url(#grid)"/>
<ellipse cx="915" cy="180" rx="330" ry="270" fill="url(#glow)"/>
<path d="M32 1H1168" stroke="url(#accent)" stroke-width="2" opacity=".7"/>
<g font-family="-apple-system,BlinkMacSystemFont,Segoe UI,Arial,sans-serif">
  <rect x="58" y="48" width="103" height="28" rx="14" fill="#a78bfa" fill-opacity=".13" stroke="#a78bfa" stroke-opacity=".35"/>
  <circle cx="74" cy="62" r="3" fill="#8be7db"/>
  <text x="86" y="67" fill="#d8d0ff" font-size="12" font-weight="600" letter-spacing="1.8">NYU CS</text>
  <text x="58" y="150" fill="#f4f3ff" font-size="68" font-weight="750" letter-spacing="-2.5">Howie Deng<tspan fill="#a78bfa">.</tspan></text>
  <text x="61" y="194" fill="url(#accent)" font-size="22" font-weight="500" letter-spacing=".3">Java / AI engineering / Open source</text>
  <text x="61" y="265" fill="#ced2e4" font-size="26" font-weight="400">Build with intent. Go deep.</text>
  <path d="M61 303H605" stroke="#8f9cc0" stroke-opacity=".22"/>
  <text x="61" y="340" fill="#8493b0" font-size="13" letter-spacing="2">@SHAY-DENG</text>
  <text x="61" y="365" fill="#9aa8c3" font-size="12" letter-spacing="1">CODE / SYSTEMS / POSSIBILITIES</text>
</g>
<g transform="translate(945 198)">
  <circle r="145" fill="none" stroke="#a89bdd" stroke-opacity=".15"/>
  <circle r="112" fill="none" stroke="#a89bdd" stroke-opacity=".2" stroke-dasharray="3 9"/>
  <ellipse rx="150" ry="57" transform="rotate(-35)" fill="none" stroke="#a78bfa" stroke-opacity=".55"/>
  <ellipse rx="150" ry="57" transform="rotate(35)" fill="none" stroke="#64dcea" stroke-opacity=".4"/>
  <circle r="63" fill="#151d36" stroke="url(#accent)" stroke-width="1.5"/>
  <text x="0" y="13" text-anchor="middle" font-family="ui-monospace,SFMono-Regular,Consolas,monospace" font-size="42" fill="#e5ddff">&lt;/&gt;</text>
  <circle cx="123" cy="-85" r="6" fill="#b8a0ff"/>
  <circle cx="-122" cy="-85" r="5" fill="#68e4ef"/>
  <circle cx="-60" cy="131" r="4" fill="#b8a0ff"/>
  <path d="M-181 0h18M172 0h18M0-183v18M0 168v18" stroke="#8d91bd" stroke-opacity=".6"/>
</g>
</svg>
